<svg xmlns="http://www.w3.org/2000/svg" xmlns:xlink="http://www.w3.org/1999/xlink" width="current" height="current" viewBox="0 0 396 60">
  <defs>
    <clipPath id="clip-path">
      <rect width="100%" height="100%" fill="none"/>
    </clipPath>
  </defs>
  <g id="반복_그리드_2" data-name="반복 그리드 2" clip-path="url(#clip-path)">
    <g id="그룹_21" data-name="그룹 21" transform="translate(-167.9 -179.543)">
      <path id="패스_12" data-name="패스 12" d="M511.4,239.543h-339a4.513,4.513,0,0,1-4.5-4.5v-51a4.513,4.513,0,0,1,4.5-4.5h387a4.513,4.513,0,0,1,4.5,4.5v51a4.513,4.513,0,0,1-4.5,4.5" fill="#03c75a"/>
      <path id="패스_13" data-name="패스 13" d="M304.209,203.176l-6.731-9.633H291.9v18h5.844v-9.634l6.73,9.634h5.579v-18h-5.844Z" transform="translate(0.5 7)" fill="#fff"/>
      <path id="패스_14" data-name="패스 14" d="M314.768,206.4V194.055h1.848v10.729h.693a19.034,19.034,0,0,0,3.16-.241q1.438-.241,2.363-.45v1.544q-.5.148-1.176.286c-.448.093-.927.174-1.438.245s-1.033.129-1.564.171-1.05.065-1.554.065Zm9.345-13.566H325.9v18.478h-1.785v-11h-4.158v-1.577h4.158Zm6.069,18.962h-1.806V192.626h1.806Z" transform="translate(11.934 6.542)" fill="#fff"/>
      <path id="패스_15" data-name="패스 15" d="M336.51,200.574a10.585,10.585,0,0,1-.38,2.978,6.53,6.53,0,0,1-1.041,2.155,4.424,4.424,0,0,1-1.568,1.3,4.343,4.343,0,0,1-1.936.441,4.281,4.281,0,0,1-1.926-.441,4.53,4.53,0,0,1-1.568-1.3,6.521,6.521,0,0,1-1.062-2.155,10.352,10.352,0,0,1-.39-2.978,10.245,10.245,0,0,1,.39-2.966,6.508,6.508,0,0,1,1.062-2.145,4.53,4.53,0,0,1,1.568-1.3,4.3,4.3,0,0,1,1.926-.441,4.364,4.364,0,0,1,1.936.441,4.424,4.424,0,0,1,1.568,1.3,6.516,6.516,0,0,1,1.041,2.145,10.475,10.475,0,0,1,.38,2.966m-1.848,0a10.1,10.1,0,0,0-.21-2.138,5.973,5.973,0,0,0-.6-1.654,3,3,0,0,0-.966-1.069,2.476,2.476,0,0,0-2.625,0,3,3,0,0,0-.966,1.069,5.925,5.925,0,0,0-.6,1.654,10.992,10.992,0,0,0,0,4.277,5.954,5.954,0,0,0,.6,1.656,3.105,3.105,0,0,0,.966,1.078,2.411,2.411,0,0,0,2.625,0,3.1,3.1,0,0,0,.966-1.078,6,6,0,0,0,.6-1.656,10.107,10.107,0,0,0,.21-2.139m5.46-7.948h1.806V211.8h-1.806Z" transform="translate(17.87 6.542)" fill="#fff"/>
      <path id="패스_16" data-name="패스 16" d="M347.486,199.368h4.494v-6.742h1.806V211.8H351.98V200.942h-4.494v5.628h-8.568l.021-12.495h1.848v4.746H345.7v-4.746h1.785Zm-1.764.986h-4.956v4.683h4.956Z" transform="translate(24.009 6.542)" fill="#fff"/>
      <path id="패스_17" data-name="패스 17" d="M356.412,203.679v-5.8H366.6v-2.772H356.391v-1.575H368.4v5.838H358.218v2.772h10.815v1.533h-5.691V207.1h7.98v1.533h-17.85V207.1h7.98v-3.423Z" transform="translate(31.286 6.997)" fill="#fff"/>
      <path id="패스_18" data-name="패스 18" d="M378.658,195.392H368.2v-1.617h12.306q-.043,1.557-.156,3.249t-.29,3.4q-.178,1.7-.4,3.323t-.457,3.009h4.1v1.533H365.47v-1.533h11.886q.524-2.583.882-5.534t.42-5.828" transform="translate(37.285 7.116)" fill="#fff"/>
      <path id="패스_19" data-name="패스 19" d="M377.916,198.339a5.042,5.042,0,0,1,.377-1.954,4.645,4.645,0,0,1,1.048-1.554,4.861,4.861,0,0,1,1.572-1.017,5.144,5.144,0,0,1,1.969-.369,5.308,5.308,0,0,1,1.99.369,4.813,4.813,0,0,1,1.593,1.017,4.645,4.645,0,0,1,1.049,1.554,5.042,5.042,0,0,1,.376,1.954,4.832,4.832,0,0,1-.376,1.911,4.553,4.553,0,0,1-1.049,1.521,4.919,4.919,0,0,1-1.593,1.009,5.336,5.336,0,0,1-1.99.368,5.172,5.172,0,0,1-1.969-.368,4.97,4.97,0,0,1-1.572-1.009,4.553,4.553,0,0,1-1.048-1.521,4.832,4.832,0,0,1-.377-1.911m1.932-.012a3.69,3.69,0,0,0,.221,1.289,2.832,2.832,0,0,0,.63,1.014,2.979,2.979,0,0,0,.977.66,3.407,3.407,0,0,0,2.52,0,2.9,2.9,0,0,0,1.617-1.674,3.561,3.561,0,0,0,.231-1.289,3.765,3.765,0,0,0-.231-1.34,3.2,3.2,0,0,0-.641-1.047,2.834,2.834,0,0,0-.977-.68,3.408,3.408,0,0,0-2.52,0,2.835,2.835,0,0,0-.977.68,3.057,3.057,0,0,0-.63,1.047,3.9,3.9,0,0,0-.221,1.34m13.776,13.094H381.213v-5.943h1.848v4.368h10.563Zm-.441-4.935H391.4v-13.86h1.785Z" transform="translate(43.508 6.542)" fill="#fff"/>
    </g>
  </g>
</svg>
